HIERARCHY
ROOT RootJoint
{
    OFFSET   0.000000   0.000000   0.000000
    CHANNELS 6 Xposition Yposition Zposition Xrotation Yrotation Zrotation
    JOINT pelvis_lowerback
    {
        OFFSET   0.000000   0.093605   0.000000
        CHANNELS 3 Xrotation Yrotation Zrotation
        JOINT lowerback_torso
        {
            OFFSET   0.000000   0.100000   0.000000
            CHANNELS 3 Xrotation Yrotation Zrotation
            JOINT torso_head
            {
                OFFSET   0.000000   0.282350   0.000000
                CHANNELS 3 Xrotation Yrotation Zrotation
                End Site
                {
                    OFFSET   0.000000   0.192650   0.000000
                }
            }
            JOINT rTorso_Clavicle
            {
                OFFSET  -0.001000   0.157500   0.000000
                CHANNELS 3 Xrotation Yrotation Zrotation
                JOINT rShoulder
                {
                    OFFSET  -0.117647   0.000000   0.000000
                    CHANNELS 3 Xrotation Yrotation Zrotation
                    JOINT rElbow
                    {
                        OFFSET  -0.245000   0.000000   0.000000
                        CHANNELS 3 Xrotation Yrotation Zrotation
                        JOINT rWrist
                        {
                            OFFSET  -0.240000   0.000000   0.000000
                            CHANNELS 3 Xrotation Yrotation Zrotation
                            End Site
                            {
                                OFFSET  -0.116353  -0.002500   0.000000
                            }
                        }
                    }
                }
            }
            JOINT lTorso_Clavicle
            {
                OFFSET   0.001000   0.157500   0.000000
                CHANNELS 3 Xrotation Yrotation Zrotation
                JOINT lShoulder
                {
                    OFFSET   0.117647   0.000000   0.000000
                    CHANNELS 3 Xrotation Yrotation Zrotation
                    JOINT lElbow
                    {
                        OFFSET   0.245000   0.000000   0.000000
                        CHANNELS 3 Xrotation Yrotation Zrotation
                        JOINT lWrist
                        {
                            OFFSET   0.240000   0.000000   0.000000
                            CHANNELS 3 Xrotation Yrotation Zrotation
                            End Site
                            {
                                OFFSET   0.116353  -0.002500   0.000000
                            }
                        }
                    }
                }
            }
        }
    }
    JOINT rHip
    {
        OFFSET  -0.100000  -0.051395   0.000000
        CHANNELS 3 Xrotation Yrotation Zrotation
        JOINT rKnee
        {
            OFFSET   0.000000  -0.410000   0.000000
            CHANNELS 3 Xrotation Yrotation Zrotation
            JOINT rAnkle
            {
                OFFSET   0.000000  -0.390000   0.000000
                CHANNELS 3 Xrotation Yrotation Zrotation
                JOINT rToeJoint
                {
                    OFFSET   0.000000  -0.050000   0.130000
                    CHANNELS 3 Xrotation Yrotation Zrotation
                    End Site
                    {
                        OFFSET  -0.010000   0.002000   0.060000
                    }
                }
            }
        }
    }
    JOINT lHip
    {
        OFFSET   0.100000  -0.051395   0.000000
        CHANNELS 3 Xrotation Yrotation Zrotation
        JOINT lKnee
        {
            OFFSET   0.000000  -0.410000   0.000000
            CHANNELS 3 Xrotation Yrotation Zrotation
            JOINT lAnkle
            {
                OFFSET   0.000000  -0.390000   0.000000
                CHANNELS 3 Xrotation Yrotation Zrotation
                JOINT lToeJoint
                {
                    OFFSET   0.000000  -0.050000   0.130000
                    CHANNELS 3 Xrotation Yrotation Zrotation
                    End Site
                    {
                        OFFSET   0.010000   0.002000   0.060000
                    }
                }
            }
        }
    }
}
MOTION
Frames: 14
Frame Time:   0.008333
 -0.879861   0.609726   4.983713 -145.678687  -9.640641 -176.834669  53.155285   3.194652   1.890178  -1.368863   0.146359   3.623909  -2.376635   2.297250  -4.329661  -1.228123  15.796168   0.967783   1.993309  15.023622  30.748457   0.004351  60.579649  -0.004465  11.191809   0.727120 -11.581112  -3.233374 -19.205887  -0.855137   6.563305 -16.671279 -29.857920   0.013445 -68.232360   0.015595   9.906544  -5.904593  16.773810 -31.478210  -7.595392 -14.523520  99.394157  -0.000046  -0.000092 -46.352922 -10.123882  -2.932137   0.129078   0.000016  -0.000030 -31.513856   0.810491  13.898209 103.626735  -0.000007  -0.000339 -45.744740   0.699526   0.981975  -3.609394   0.000014   0.000048
 -0.880162   0.609339   4.984931 -145.612804  -9.600918 -176.861543  52.963743   3.176346   1.852577  -1.466377   0.098528   3.598147  -2.430908   2.356746  -4.262348  -1.239108  15.780802   1.032563   1.975187  15.190641  30.844236   0.003723  60.525117  -0.003798  11.286135   0.722491 -11.731655  -3.292074 -19.276690  -0.983306   6.467264 -16.826585 -30.069740   0.012322 -67.886615   0.014545   9.955361  -5.940087  16.824035 -31.517028  -7.490008 -14.425883  99.405772  -0.000029  -0.000069 -46.382932  -9.965207  -2.839331   0.134191   0.000008  -0.000013 -30.925709   0.957998  13.887381 103.613310  -0.000004  -0.000265 -46.218757   0.720228   1.090010  -3.560368  -0.000019   0.000027
 -0.880578   0.608873   4.986238 -145.583491  -9.565908 -176.926735  52.746776   3.166822   1.849833  -1.565932   0.060530   3.580144  -2.483312   2.413775  -4.193864  -1.246540  15.764322   1.087958   1.959395  15.352197  30.937781   0.003159  60.483827  -0.003211  11.386332   0.764556 -11.872082  -3.326288 -19.334257  -1.120896   6.390054 -16.971141 -30.289715   0.010957 -67.561175   0.013258   9.996978  -5.960128  16.840230 -31.604498  -7.401338 -14.316770  99.418677  -0.000016  -0.000051 -46.412595  -9.817984  -2.749204   0.140904   0.000001   0.000002 -30.310893   1.095043  13.882732 103.435820   0.000025  -0.000104 -46.662874   0.739280   1.191784  -3.499996  -0.000048  -0.000002
 -0.881098   0.608287   4.987629 -145.570815  -9.545630 -177.018339  52.526986   3.159634   1.869658  -1.666612   0.027873   3.575515  -2.534257   2.467013  -4.126091  -1.253757  15.747938   1.137150   1.944230  15.503706  31.024795   0.002685  60.447380  -0.002721  11.485796   0.822516 -12.007681  -3.348577 -19.383030  -1.255458   6.324059 -17.105045 -30.503784   0.009605 -67.257150   0.011921  10.035780  -5.977494  16.828521 -31.723778  -7.331650 -14.207666  99.440257   0.000000  -0.000036 -46.440651  -9.682949  -2.661111   0.146421  -0.000003   0.000011 -29.694417   1.225764  13.879056 103.212929   0.000036   0.000077 -47.077072   0.756411   1.287114  -3.434534  -0.000060  -0.000029
 -0.881710   0.607570   4.989103 -145.564643  -9.543243 -177.128370  52.314704   3.152929   1.904343  -1.765090  -0.002104   3.582511  -2.583099   2.516605  -4.060166  -1.260944  15.731731   1.181954   1.929618  15.644777  31.105359   0.002289  60.413817  -0.002312  11.582029   0.882543 -12.141225  -3.365768 -19.426361  -1.382103   6.264709 -17.229139 -30.706244   0.008366 -66.973220   0.010638  10.072773  -5.993823  16.804282 -31.865149  -7.277830 -14.101632  99.472595   0.000021  -0.000023 -46.466321  -9.559029  -2.575390   0.151210  -0.000006   0.000016 -29.087520   1.352963  13.873673 102.985943   0.000011   0.000249 -47.463255   0.771738   1.376234  -3.369869  -0.000054  -0.000047
 -0.882571   0.607004   4.990486 -145.390538  -9.400641 -177.180275  52.234515   3.171784   1.865891  -1.790027  -0.011608   3.552322  -2.623422   2.562905  -4.002747  -1.272531  15.731387   1.229427   1.911341  15.782221  31.180850   0.001961  60.381023  -0.001978  11.673066   0.931819 -12.269459  -3.380649 -19.468797  -1.506482   6.210273 -17.341784 -30.895114   0.007194 -66.702533   0.009381  10.101726  -5.988182  16.775885 -31.826294  -7.131644 -14.031969  99.492113   0.000021  -0.000028 -46.489282  -9.429259  -2.518597   0.155133  -0.000006   0.000017 -28.815247   1.405903  13.873636 103.163043  -0.000109   0.000015 -47.866640   0.784518   1.460448  -3.224224  -0.000093  -0.000194
 -0.883571   0.606553   4.991846 -145.163739  -9.222135 -177.234666  52.181683   3.197398   1.827302  -1.785600  -0.011919   3.519523  -2.656911   2.605947  -3.950454  -1.280632  15.734820   1.282813   1.895215  15.913363  31.256781   0.001691  60.350145  -0.001708  11.761198   0.980901 -12.379160  -3.386478 -19.504836  -1.634003   6.164192 -17.445575 -31.079651   0.006133 -66.447720   0.008209  10.126723  -5.973268  16.731284 -31.721228  -6.988252 -13.982377  99.488257   0.000017  -0.000019 -46.510417  -9.306176  -2.469549   0.159243  -0.000005   0.000015 -28.612733   1.523511  13.869867 103.270063  -0.000104  -0.000142 -48.215286   0.810083   1.517333  -3.165280  -0.000042  -0.000200
 -0.884484   0.606487   4.993165 -144.922347  -8.901311 -177.229210  52.170295   3.291910   1.720999  -1.774831  -0.016183   3.377366  -2.731258   2.596919  -3.852094  -1.314625  15.693035   1.381920   1.899615  16.057460  31.365525   0.000686  60.547803  -0.000583  11.812538   0.913293 -12.498387  -3.371830 -19.509191  -1.717821   6.173552 -17.575303 -31.325813   0.004794 -66.132463   0.007064  10.183755  -5.981505  16.795221 -31.590545  -6.703530 -13.921495  99.423578   0.000023   0.000048 -46.300182  -9.164471  -2.330742   0.139236   0.000008   0.000003 -28.351443   1.816002  13.871587 103.251806  -0.000082  -0.000085 -48.462902   0.867883   1.604090  -3.107460  -0.000011  -0.000189
 -0.885238   0.606689   4.994476 -144.708094  -8.575957 -177.218704  52.139580   3.392284   1.617993  -1.763371  -0.008622   3.227126  -2.802707   2.586506  -3.760019  -1.344469  15.654256   1.482132   1.901933  16.202837  31.479080  -0.000060  60.749927   0.000280  11.879162   0.939851 -12.623698  -3.333621 -19.499206  -1.810592   6.199109 -17.689941 -31.574014   0.003584 -65.831581   0.006058  10.230201  -5.961748  16.813550 -31.464346  -6.437160 -13.865807  99.320587   0.000052   0.000137 -46.103295  -9.031600  -2.201192   0.138414   0.000007   0.000002 -28.087958   2.108262  13.863631 103.178578  -0.000049   0.000043 -48.687892   0.921182   1.685663  -3.050025   0.000011  -0.000187
 -0.885812   0.607095   4.995798 -144.520166  -8.261028 -177.204870  52.096207   3.495324   1.518302  -1.756155   0.009415   3.081110  -2.870778   2.576602  -3.673623  -1.372329  15.620837   1.576939   1.902954  16.342892  31.588202  -0.000575  60.942620   0.000874  11.950120   0.999658 -12.743028  -3.284987 -19.480508  -1.903183   6.231802 -17.792895 -31.814504   0.002620 -65.548587   0.005226  10.270697  -5.931318  16.800305 -31.347385  -6.197674 -13.814188  99.188304   0.000105   0.000227 -45.924069  -8.908284  -2.079668   0.138101   0.000006   0.000002 -27.835077   2.385851  13.847795 103.065262  -0.000001   0.000197 -48.902421   0.970508   1.762326  -2.996319   0.000023  -0.000186
 -0.886197   0.607662   4.997138 -144.358572  -7.964915 -177.187497  52.042416   3.598742   1.423693  -1.755161   0.034757   2.942352  -2.935270   2.567350  -3.592492  -1.399165  15.591668   1.664608   1.902736  16.475918  31.690474  -0.000914  61.124213   0.001254  12.021092   1.070127 -12.857006  -3.232587 -19.456205  -1.990786   6.267257 -17.885696 -32.042515   0.001908 -65.283335   0.004560  10.307620  -5.896755  16.772063 -31.227297  -5.976114 -13.764951  99.049799   0.000148   0.000292 -45.755338  -8.791283  -1.968275   0.136763   0.000006   0.000001 -27.601185   2.643085  13.826846 102.920499   0.000057   0.000347 -49.107605   1.015843   1.834965  -2.947051   0.000026  -0.000183
 -0.886385   0.608372   4.998500 -144.223044  -7.697337 -177.169383  51.980042   3.700506   1.339078  -1.761339   0.064564   2.814096  -2.996382   2.558756  -3.516191  -1.425390  15.565730   1.744968   1.901387  16.601299  31.785185  -0.001116  61.294569   0.001467  12.090588   1.143375 -12.967783  -3.180110 -19.428528  -2.071717   6.302968 -17.969639 -32.256243   0.001407 -65.035112   0.004033  10.341917  -5.860268  16.739230 -31.095222  -5.755896 -13.719431  98.929462   0.000142   0.000323 -45.594558  -8.677710  -1.869662   0.136170   0.000005   0.000001 -27.392509   2.872429  13.806283 102.750023   0.000116   0.000473 -49.304196   1.056945   1.904802  -2.901847   0.000023  -0.000174
 -0.886383   0.609207   4.999891 -144.111374  -7.452271 -177.149856  51.912725   3.801329   1.261169  -1.773636   0.098490   2.694539  -3.054060   2.550840  -3.444684  -1.451565  15.543225   1.817886   1.898701  16.719503  31.872235  -0.001216  61.454236   0.001556  12.158169   1.216785 -13.076488  -3.129487 -19.398638  -2.144933   6.337681 -18.045501 -32.454999   0.001063 -64.802967   0.003607  10.373902  -5.822498  16.707745 -30.958835  -5.546187 -13.680880  98.823296   0.000122   0.000333 -45.444567  -8.571594  -1.778203   0.135748   0.000004   0.000000 -27.207109   3.079535  13.788929 102.555819   0.000175   0.000567 -49.492788   1.094617   1.971213  -2.860498   0.000017  -0.000162
 -0.886158   0.610185   5.001438 -144.070554  -7.246832 -177.091137  51.857049   3.822734   1.182055  -1.828940   0.132757   2.557956  -3.126746   2.487172  -3.383358  -1.510893  15.528110   1.949875   1.771449  16.894995  31.978195  -0.001633  61.666354   0.002081  12.216794   1.181354 -13.164186  -3.073686 -19.321586  -2.241257   6.394706 -18.106731 -32.633575   0.000675 -64.618093   0.003134  10.459793  -5.777119  16.763080 -30.836969  -5.318119 -13.666410  98.844169   0.000104   0.000257 -45.353498  -8.491634  -1.701587   0.110617   0.000001  -0.000015 -27.107642   3.303713  13.742221 102.334965   0.000163   0.000625 -49.752805   1.132357   2.149759  -2.725250  -0.000118  -0.000152
